<!-- icon666.com - MILLIONS vector ICONS FREE -->
<svg id="Leadership" viewBox="0 0 64 64" xmlns="http://www.w3.org/2000/svg">
    <path d="m40.925 37.46c-.065.06-4.225 3.81-4.39 3.97v5.16a1 1 0 0 1 -2 0v-5.16c-1.612-1.466-4.414-3.99-6.02-5.44-5.492 1.3-8.575 6.19-8.1 11.85h30.24c.481-5.647-2.618-10.564-8.11-11.85z"/>
    <path d="m26.415 25.92v1.73a1.88 1.88 0 0 0 1.53 1.85 7.662 7.662 0 0 0 3.02 4.93l-.41.71c1.239 1.138 3.724 3.351 4.98 4.5 1.078-.96 4.037-3.66 4.97-4.5l-.4-.71a7.689 7.689 0 0 0 3.01-4.93 1.889 1.889 0 0 0 1.54-1.85v-1.73a.09.09 0 0 0 -.01-.05.03.03 0 0 0 0-.04v-1.73a9.115 9.115 0 1 0 -18.23 0z"/>
    <path d="m17.7 38.61a.988.988 0 0 0 -.1.45v8.78h2v-8.55l1.1-2.21a2.4 2.4 0 0 0 2.26-1.34l1.25-2.53a2.413 2.413 0 0 0 -4.33-2.13c-.3.744-1.579 2.777-1.5 3.59a6.915 6.915 0 0 0 .54 1.51c.004.011-1.22 2.42-1.22 2.43z"/>
    <path d="m55.3 49.84c-8.323.007-31-.005-39.53 0a1 1 0 0 0 -1 1v5.16a1 1 0 0 0 1 1h39.53a1 1 0 0 0 1-1v-5.16a1 1 0 0 0 -1-1z"/>
    <path d="m21.965 22.63a1 1 0 0 0 1.86-.51v-3.92a3.9 3.9 0 0 0 2.83-3.75v-3.53a3.926 3.926 0 0 0 -3.92-3.92h-11.11a3.926 3.926 0 0 0 -3.92 3.92v3.53a3.926 3.926 0 0 0 3.92 3.92h7.81z"/>
</svg>