<!-- icon666.com - MILLIONS vector ICONS FREE -->
<svg id="Leadership" viewBox="0 0 64 64" xmlns="http://www.w3.org/2000/svg">
    <path d="m49.862 42.05-9.12 9.12-.78.78 2.64 2.64 10.73-10.74-2.63-2.64z"/>
    <path d="m47.742 41.34-5.13-5.13c-1.579 1.562-3.434 3.833-5.82 4.03a5.737 5.737 0 0 0 -3.38 2.15l6.62 6.66z"/>
    <path d="m14.162 42.07-.86-.86-2.64 2.64 10.74 10.74 2.63-2.64-.77-.78z"/>
    <path d="m19.182 31.17 1.36 1.36a.779.779 0 0 0 1.11 0c.246-.274.773-.637.73-1.06.083-.467-1.091-1.339-1.59-1.91a.781.781 0 0 0 -.55-.23c-.421-.044-.788.484-1.06.73a.779.779 0 0 0 0 1.11z"/>
    <path d="m22.182 28.12c.037.048 1.3 1.289 1.33 1.33.566.476 1.164.159 1.56-.35a.9.9 0 0 0 0-1.3l-1.81-1.82a.925.925 0 0 0 -1.3 0c-.517.415-.841 1.057-.31 1.61z"/>
    <path d="m24.6 21.69a1.145 1.145 0 0 0 -.81 1.94l2.57 2.57a1.142 1.142 0 0 0 1.62-1.61l-2.58-2.57a1.128 1.128 0 0 0 -.8-.33z"/>
    <path d="m30.662 18.6a2.385 2.385 0 0 0 1.22 1.26l2.05-2.06h-3.44a2.441 2.441 0 0 0 .17.8z"/>
    <path d="m25.932 19.72.89.89 2.57 2.57a1.147 1.147 0 0 0 1.61 0 1.173 1.173 0 0 0 .14-1.45 4.327 4.327 0 0 1 -2.29-2.26l-1.51-1.52a1.141 1.141 0 0 0 -1.41 1.77z"/>
    <path d="m38.952 37.03c1-1.008 3.468-3.458 4.44-4.43.225-.218 1.19-1.194 1.43-1.43a.8.8 0 0 0 0-1.11l-.51-.5a.785.785 0 0 0 -1.1 0c-.614.53-1.364 1.622-1.97 1.55a1 1 0 0 1 -.71-1.7c.361-.382 1.457-1.457 1.81-1.82.528-.558.211-1.181-.3-1.61a.929.929 0 0 0 -1.31 0l-1.81 1.82a1 1 0 0 1 -1.47-1.35c-.147.015 2.712-2.761 2.75-2.82a1.139 1.139 0 0 0 -1.61-1.61l-2.57 2.57a1 1 0 0 1 -1.41-1.41l2.57-2.57.89-.89a1.147 1.147 0 0 0 0-1.61 1.124 1.124 0 0 0 -1.61 0l-3.162 3.16a.917.917 0 0 1 -.09.23 3.147 3.147 0 0 1 -.8 3.09 3.084 3.084 0 0 1 -2.1.92 3.136 3.136 0 0 1 -2.96 3.02 3.14 3.14 0 0 1 -1.16 2.29 3.08 3.08 0 0 1 -1.82.85 3.265 3.265 0 0 1 -1.28 2.25c-.041.03-6.821 7.357-6.86 7.39l7.73 7.73c1.24-1.236 7.885-7.909 8.94-8.97a6.4 6.4 0 0 1 3.59-1.81 4.32 4.32 0 0 0 2.462-1.23z"/>
    <path d="m50.312 21.94c.374.073 2.184-1.163 2.53-1.31a1 1 0 1 0 -1-1.73l-2.03 1.17a1.008 1.008 0 0 0 .5 1.87z"/>
    <path d="m45.592 16.31a.99.99 0 0 0 .77-.36l1.51-1.8a1 1 0 1 0 -1.53-1.28l-1.51 1.8a1 1 0 0 0 .76 1.64z"/>
    <path d="m38.9 12.57a1 1 0 0 0 1.28-.6l.8-2.2a1 1 0 1 0 -1.88-.69l-.8 2.21a1 1 0 0 0 .6 1.28z"/>
    <path d="m32.012 11.35a1 1 0 0 0 1-1v-2.35a1 1 0 0 0 -2 0v2.35a1 1 0 0 0 1 1z"/>
    <path d="m23.832 11.96a1 1 0 0 0 1.88-.69l-.8-2.2a1 1 0 1 0 -1.88.68z"/>
    <path d="m17.652 15.93a1 1 0 0 0 1.53-1.29l-1.51-1.8a1 1 0 0 0 -1.53 1.29z"/>
    <path d="m11.152 20.6c.351.149 2.15 1.374 2.53 1.3a1 1 0 0 0 .51-1.86l-2.04-1.18a1 1 0 0 0 -1 1.74z"/>
</svg>