<!-- icon666.com - MILLIONS vector ICONS FREE -->
<svg id="Leadership" viewBox="0 0 64 64" xmlns="http://www.w3.org/2000/svg">
    <path d="m53.332 36.66a2.748 2.748 0 0 1 -2.75-2.75 1 1 0 0 0 -2 0 2.748 2.748 0 0 1 -2.75 2.75 1 1 0 0 0 0 2 2.748 2.748 0 0 1 2.75 2.75 1 1 0 0 0 2 0 2.748 2.748 0 0 1 2.75-2.75 1 1 0 0 0 0-2z"/>
    <path d="m23.222 11.03a2.757 2.757 0 0 1 2.76 2.75 1 1 0 0 0 2 0 2.748 2.748 0 0 1 2.75-2.75 1 1 0 0 0 0-2 2.748 2.748 0 0 1 -2.75-2.75 1 1 0 0 0 -2 0 2.757 2.757 0 0 1 -2.76 2.75 1 1 0 0 0 0 2z"/>
    <path d="m22.722 32.52a9.368 9.368 0 0 0 3.9 6.34v.98c1.575.937 3.776 2.249 5.36 3.17.946-.541 2.9-1.715 3.85-2.27l1.51-.89v-.99a9.416 9.416 0 0 0 3.91-6.34 2.114 2.114 0 0 0 1.89-2.1c-.005-.356 0-1.815 0-2.15 0-.2-.022-1.283-.01-1.49a11.169 11.169 0 1 0 -22.31-.8c-.007.479.006 1.84 0 2.29.005.568 0 1.586 0 2.15a2.115 2.115 0 0 0 1.9 2.1z"/>
    <path d="m28.162 57.63.09-.91 1.23-12.86c-1.228-.726-3-1.776-4.23-2.5l-5.69 1.95a7.516 7.516 0 0 0 -5.07 7.1v7.31a1 1 0 0 0 1 1h13.57a1 1 0 0 1 -.9-1.09z"/>
    <path d="m15.422 33.88a2.757 2.757 0 0 1 2.75-2.76 1 1 0 0 0 0-2 2.748 2.748 0 0 1 -2.75-2.75 1 1 0 0 0 -2 0 2.757 2.757 0 0 1 -2.76 2.75 1 1 0 0 0 0 2 2.766 2.766 0 0 1 2.76 2.76 1 1 0 0 0 2 0z"/>
    <path d="m44.4 43.31-5.69-1.96c-.345.2-1.945 1.161-2.25 1.34h-.01l-.04.03-1.93 1.14 1.24 12.86c.05.5.145 1.5.193 2h12.559a1 1 0 0 0 1-1v-7.31a7.5 7.5 0 0 0 -5.072-7.1z"/>
    <path d="m33.491 54.429-.909-9.439a1.063 1.063 0 0 1 -1.2 0l-1.12 11.73-.11 1.1a1.007 1.007 0 0 1 -1 .9h4.735z"/>
</svg>