<!-- icon666.com - MILLIONS vector ICONS FREE -->
<svg id="Leadership" viewBox="0 0 64 64" xmlns="http://www.w3.org/2000/svg">
    <path d="m35.3 35.37a12.431 12.431 0 0 1 2.29-1.33l-4.08-1.4c-.349.211-1.954 1.137-2.26 1.34l-1.92 1.13.77 8.04a13.229 13.229 0 0 1 5.2-7.78z"/>
    <path d="m43.052 34.86c-7.44-.157-13.267 7.681-10.7 14.85a11.279 11.279 0 0 0 10.7 7.71c14.963-.62 14.962-21.942 0-22.56zm4.37 12.28h-4.37a1 1 0 0 1 -1-1v-5.14a1 1 0 0 1 2 0v4.14h3.37a1 1 0 0 1 0 2z"/>
    <path d="m27.432 36.23a1.022 1.022 0 0 1 -1.15 0c-.136 1.408-1.188 12.4-1.29 13.48h3.74c-.114-1.028-1.168-12.132-1.3-13.48z"/>
    <path d="m17.742 23.98a9.232 9.232 0 0 0 3.84 6.22v.93c1.559.922 3.717 2.2 5.28 3.12.926-.547 2.832-1.682 3.77-2.23l1.51-.89v-.93a9.219 9.219 0 0 0 3.83-6.22 2.081 2.081 0 0 0 1.86-2.07v-2.12c.009-.073-.013-.14-.01-.21v-2.04a10.97 10.97 0 0 0 -21.94 0v2.25 2.12a2.089 2.089 0 0 0 1.86 2.07z"/>
    <path d="m20.2 32.63-5.55 1.91a7.409 7.409 0 0 0 -4.99 6.99v7.18a1 1 0 0 0 1 1h12.32c.065-.879 1.29-13.328 1.4-14.6-1.034-.599-3.155-1.885-4.18-2.48z"/>
</svg>